# xmcd
#
# Track frame offsets:
#	150
#	14226
#	33559
#	52428
#	67388
#	85073
#	99417
#	113307
#	128760
#	144151
#	160153
#	177157
#
# Disc length: 2618 seconds
#
# Revision: 1
# Processed by: cddbd v1.5.2PL0 Copyright (c) Steve Scherf et al.
# Submitted via: audiograbber 1.83.01
#
DISCID=a40a380c
DTITLE=Stefano Zabeo and TV Mama - Out Again
DYEAR=2009
DGENRE=Blues
TTITLE0=I won't trade my blues
TTITLE1=Highway blues
TTITLE2=I wanna sing
TTITLE3=Evil
TTITLE4=Papa blues
TTITLE5=Rock&roll is keep
TTITLE6=It's only love
TTITLE7=In the cold pouring rain
TTITLE8=I love the life I live
TTITLE9=Tell me why
TTITLE10=So come on
TTITLE11=Event
EXTD=
EXTT0=
EXTT1=
EXTT2=
EXTT3=
EXTT4=
EXTT5=
EXTT6=
EXTT7=
EXTT8=
EXTT9=
EXTT10=
EXTT11=
PLAYORDER=
